<svg xmlns="http://www.w3.org/2000/svg" xmlns:xlink="http://www.w3.org/1999/xlink" width="55" height="55" viewBox="0 0 55 55">
  <defs>
    <linearGradient id="linear-gradient" x1="0.059" y1="1.422" x2="0.933" y2="-0.369" gradientUnits="objectBoundingBox">
      <stop offset="0" stop-color="#ff8a00"/>
      <stop offset="1" stop-color="#ffbd27"/>
    </linearGradient>
  </defs>
  <path id="icons-05" d="M33.581,31.584,35.2,33.2l-7.991,8v2.42h2.42l.265-.265-.172-3.19,2.308.124L31.9,37.979l3.176.17,2.538-2.538,1.615,1.615,4.451-4.439-5.65-5.65Zm5.784-1.472a1.683,1.683,0,1,1-1.681,1.683,1.683,1.683,0,0,1,1.681-1.683ZM24.46,26.863a2.691,2.691,0,0,1-1.48,2.406v2.82a.793.793,0,0,1-.793.791h-.828a.793.793,0,0,1-.8-.791v-2.82a2.691,2.691,0,1,1,3.9-2.406ZM50.151,0H4.848A4.846,4.846,0,0,0,0,4.848v45.3A4.849,4.849,0,0,0,4.848,55h45.3A4.851,4.851,0,0,0,55,50.152V4.848A4.848,4.848,0,0,0,50.151,0ZM21.5,8.813h.53a9.631,9.631,0,0,1,9.523,8.3h-4a5.687,5.687,0,0,0-5.523-4.358H21.5a5.687,5.687,0,0,0-5.523,4.358h-4a9.631,9.631,0,0,1,9.527-8.3Zm2.263,29.279H9.353a.847.847,0,0,1-.843-.845V19.8a.845.845,0,0,1,.843-.843H34.175a.845.845,0,0,1,.843.843v3.8l-5.111,5.113a4.062,4.062,0,0,0-.967,4.2L23.8,38.061Zm22.152-3.886-5.265,5.252a2.006,2.006,0,0,1-2.834,0l-.207-.2-1.52,1.522-1.449-.079.124,2.308-2.308-.124.079,1.449-1.213,1.215a1.95,1.95,0,0,1-1.36.621H26.588A1.961,1.961,0,0,1,24.628,44.2V40.869a1.954,1.954,0,0,1,.621-1.362L31.555,33.2l-.2-.207a2.006,2.006,0,0,1,0-2.834L36.614,24.9a2.006,2.006,0,0,1,2.834,0l6.457,6.459a2,2,0,0,1,0,2.845Z" fill="url(#linear-gradient)"/>
</svg>
