<svg xmlns="http://www.w3.org/2000/svg" xmlns:xlink="http://www.w3.org/1999/xlink" width="55" height="67" viewBox="0 0 55 67">
  <defs>
    <linearGradient id="linear-gradient" x1="0.059" y1="1.422" x2="0.933" y2="-0.369" gradientUnits="objectBoundingBox">
      <stop offset="0" stop-color="#ff8a00"/>
      <stop offset="1" stop-color="#ffbd27"/>
    </linearGradient>
  </defs>
  <g id="グループ_169" data-name="グループ 169" transform="translate(-257 -977)">
    <text id="室内乾燥機" transform="translate(285 1042)" fill="#727272" stroke="rgba(0,0,0,0)" stroke-width="1" font-size="9" font-family="HiraginoSans-W3, Hiragino Sans" letter-spacing="-0.07em"><tspan x="-21.24" y="0">室内乾燥機</tspan></text>
    <path id="icons-02" d="M28.892,25.381a3.432,3.432,0,0,1-2.807,0l1.4-.708Zm9.879-12.732-.956,3.045H17.152L16.2,12.649Zm-1.551,1.522a.621.621,0,0,0-.621-.621H18.589a.621.621,0,1,0,0,1.242H36.6a.621.621,0,0,0,.621-.621ZM32.693,28.112a5.919,5.919,0,0,0-2.07-1.342c-.207.9-.9,1.99-3.118,1.99-2.151,0-2.915-1.066-3.176-1.975a6.024,6.024,0,0,0-2.035,1.327c-.855.809-2.356,2.306-3.246,3.2l1.517,1.52,2.242-1.555V42.351h9.384V31.279l2.24,1.555,1.52-1.52C35.049,30.418,33.55,28.921,32.693,28.112ZM50.151,0H4.848A4.846,4.846,0,0,0,0,4.848v45.3A4.849,4.849,0,0,0,4.848,55h45.3A4.851,4.851,0,0,0,55,50.152V4.848A4.848,4.848,0,0,0,50.151,0ZM14.409,10.575H40.558a.718.718,0,0,1,.725.99l-1.638,5.215a1.507,1.507,0,0,1-1.346.988H16.667a1.505,1.505,0,0,1-1.348-.988l-1.635-5.215a.718.718,0,0,1,.725-.99Zm-2.8,18.365a.622.622,0,1,1-.824-.932,18.81,18.81,0,0,0,4.472-5.782,11.8,11.8,0,0,0,.99-2.706.621.621,0,0,1,1.221.224C17.431,19.941,16.545,24.57,11.608,28.94Zm3.805.279a.621.621,0,0,1-.043-.878,17.256,17.256,0,0,0,4.466-8.751.621.621,0,0,1,1.23.176,18.526,18.526,0,0,1-4.776,9.409.621.621,0,0,1-.876.043Zm19.253,6.306-.414-.288v9.188H20.727V35.24l-.414.286-4.2-4.207.725-.733c.112-.112,2.731-2.76,4.025-3.981a6.749,6.749,0,0,1,3.764-2.018l.329-.029,1.915-.956v-.36a1.393,1.393,0,0,1,.71-1.087c.414-.319.671-.544.671-1.089,0-.453-.128-.756-.754-.756a.758.758,0,0,0-.756.756.621.621,0,1,1-1.242,0,2,2,0,0,1,2-2,1.853,1.853,0,0,1,2,2,2.441,2.441,0,0,1-1.155,2.07c-.077.058-.174.132-.226.182V23.6l1.836.925.4.064a6.785,6.785,0,0,1,3.762,2.018c1.294,1.221,3.913,3.869,4.025,3.981l.725.733Zm4.923-6.306a.621.621,0,0,1-.878-.043,18.534,18.534,0,0,1-4.774-9.409.621.621,0,0,1,1.23-.176,17.238,17.238,0,0,0,4.465,8.751.621.621,0,0,1-.046.878Zm4.681-.333a.621.621,0,0,1-.876.054c-4.938-4.37-5.826-9-5.861-9.2a.622.622,0,1,1,1.224-.222,11.929,11.929,0,0,0,.992,2.7,18.877,18.877,0,0,0,4.472,5.782.621.621,0,0,1,.048.878Z" transform="translate(257 977)" fill="url(#linear-gradient)"/>
  </g>
</svg>
