<svg xmlns="http://www.w3.org/2000/svg" xmlns:xlink="http://www.w3.org/1999/xlink" width="58" height="68" viewBox="0 0 58 68">
  <defs>
    <linearGradient id="linear-gradient" x1="0.059" y1="1.422" x2="0.933" y2="-0.369" gradientUnits="objectBoundingBox">
      <stop offset="0" stop-color="#ff8a00"/>
      <stop offset="1" stop-color="#ffbd27"/>
    </linearGradient>
  </defs>
  <g id="グループ_166" data-name="グループ 166" transform="translate(-382 -977)">
    <text id="コンロ2口以上" transform="translate(411 1042)" fill="#727272" stroke="rgba(0,0,0,0)" stroke-width="1" font-size="9" font-family="HiraginoSans-W3, Hiragino Sans" letter-spacing="-0.07em"><tspan x="-27.613" y="0">コンロ</tspan><tspan y="0" font-family="Helvetica">2</tspan><tspan y="0">口以上</tspan></text>
    <path id="icons-06" d="M19.2,17.512a6.418,6.418,0,1,0,6.428,6.418A6.418,6.418,0,0,0,19.2,17.512Zm0,11.573a5.147,5.147,0,1,1,5.147-5.147A5.147,5.147,0,0,1,19.2,29.085ZM13.262,39.1h-2.29V36.807h2.29ZM19.2,21.013a2.925,2.925,0,1,0,2.925,2.925A2.925,2.925,0,0,0,19.2,21.013Zm0,4.906a1.981,1.981,0,1,1,1.981-1.981A1.981,1.981,0,0,1,19.2,25.919ZM22.7,39.1H20.406V36.807H22.7Zm-4.718,0H15.688V36.807H17.98ZM35.8,21.013a2.925,2.925,0,1,0,2.925,2.925A2.925,2.925,0,0,0,35.8,21.013Zm0,4.906a1.981,1.981,0,1,1,1.983-1.981A1.981,1.981,0,0,1,35.8,25.919ZM50.151,0H4.848A4.846,4.846,0,0,0,0,4.848v45.3A4.849,4.849,0,0,0,4.848,55h45.3A4.851,4.851,0,0,0,55,50.152V4.848A4.848,4.848,0,0,0,50.151,0ZM46.707,40.216a.812.812,0,0,1-.809.809H9.109a.809.809,0,0,1-.807-.809V34.834h38.4Zm0-6.314H8.293V14.784a.809.809,0,0,1,.816-.809H45.9a.812.812,0,0,1,.809.809ZM35.8,17.512a6.418,6.418,0,1,0,6.428,6.418A6.418,6.418,0,0,0,35.8,17.512Zm0,11.573a5.147,5.147,0,1,1,5.147-5.147A5.147,5.147,0,0,1,35.8,29.085Z" transform="translate(384 977)" fill="url(#linear-gradient)"/>
  </g>
</svg>
