<svg xmlns="http://www.w3.org/2000/svg" xmlns:xlink="http://www.w3.org/1999/xlink" width="55" height="67" viewBox="0 0 55 67">
  <defs>
    <linearGradient id="linear-gradient" x1="0.059" y1="1.422" x2="0.933" y2="-0.369" gradientUnits="objectBoundingBox">
      <stop offset="0" stop-color="#ff8a00"/>
      <stop offset="1" stop-color="#ffbd27"/>
    </linearGradient>
  </defs>
  <g id="グループ_172" data-name="グループ 172" transform="translate(-194 -977)">
    <text id="バストイレ別" transform="translate(222 1042)" fill="#727272" stroke="rgba(0,0,0,0)" stroke-width="1" font-size="9" font-family="HiraginoSans-W3, Hiragino Sans" letter-spacing="-0.07em"><tspan x="-25.425" y="0">バストイレ別</tspan></text>
    <path id="icons-04" d="M23.628,18.361H9.564a1.039,1.039,0,0,1,1.486-.934l.458.219v-.507h0a.927.927,0,0,1,1.58-.658l.271.267.207-.317a1.048,1.048,0,0,1,.867-.462,1.035,1.035,0,0,1,.621.207l.348.261.143-.414a1.174,1.174,0,0,1,2.006-.371l.184.207.236-.159a1.317,1.317,0,0,1,.743-.228,1.331,1.331,0,0,1,1.226.812l.151.356.319-.207a1.045,1.045,0,0,1,1.633.865,1.01,1.01,0,0,1-.014.176l-.081.48.472-.12a1.068,1.068,0,0,1,.259-.031A1.045,1.045,0,0,1,23.628,18.361Zm-3.006-5.627a.633.633,0,1,1,.186.45.636.636,0,0,1-.186-.45Zm.3.311a.19.19,0,0,0,.188-.19.253.253,0,0,1,.25-.25.19.19,0,1,0,0-.379.621.621,0,0,0-.621.621.19.19,0,0,0,.182.2ZM55,4.848v45.3A4.851,4.851,0,0,1,50.152,55H4.848A4.848,4.848,0,0,1,0,50.151V4.848A4.846,4.846,0,0,1,4.848,0h45.3A4.848,4.848,0,0,1,55,4.848ZM20.241,12.734a1.016,1.016,0,1,0,1.016-1.014,1.016,1.016,0,0,0-1.016,1.014Zm-6.018-2.24a1.31,1.31,0,1,0,1.3-1.31,1.31,1.31,0,0,0-1.3,1.31Zm-4.619,3a1.313,1.313,0,1,0,1.31-1.31,1.313,1.313,0,0,0-1.31,1.31Zm1.989,11.5h9.863v.5a.633.633,0,0,0,1.267,0v-.559c.863-.186,1.412-.861,1.6-2.07l.414-3.4h.1a.555.555,0,1,0,0-1.11h-.52a1.683,1.683,0,0,0-1.611-1.2h0a1.681,1.681,0,0,0-1.675-1.549,1.656,1.656,0,0,0-.636.124,1.969,1.969,0,0,0-2.524-.694,1.809,1.809,0,0,0-2.741.414,1.644,1.644,0,0,0-.679-.135,1.679,1.679,0,0,0-1.176.48,1.565,1.565,0,0,0-2.335.915,1.547,1.547,0,0,0-.325-.033,1.685,1.685,0,0,0-1.681,1.679h-.7a.555.555,0,1,0,0,1.11h.1l.414,3.4c.186,1.209.735,1.884,1.6,2.07V25.5a.633.633,0,0,0,1.267,0Zm7.937,20.822L38.436,13.074,36.25,11.811,17.344,44.556ZM31.178,33.273H41.223l2.3-3.035H42.15a5.553,5.553,0,0,0-2.056.756,6.778,6.778,0,0,1-2.681.932h-5.67a.563.563,0,0,0-.563.561ZM47.326,30.8a.563.563,0,0,0-.563-.563H44.9l-2.965,3.909a.544.544,0,0,1-.433.207H31.461l2.118,7.283a.563.563,0,0,0,.54.414H45.214a.563.563,0,0,0,.553-.455l1.553-7.931a.632.632,0,0,0,.01-.108ZM9.985,13.494a.932.932,0,1,1,.93.932A.932.932,0,0,1,9.985,13.494Zm.366.226a.19.19,0,0,0,.19-.19.414.414,0,0,1,.414-.414.19.19,0,0,0,0-.381.791.791,0,0,0-.791.789.19.19,0,0,0,.186.2ZM14.6,10.494a.93.93,0,1,1,.923.93A.93.93,0,0,1,14.6,10.494Zm.366.226a.19.19,0,0,0,.19-.19.414.414,0,0,1,.414-.414.19.19,0,0,0,0-.381.791.791,0,0,0-.789.789.19.19,0,0,0,.184.2Z" transform="translate(194 977)" fill="url(#linear-gradient)"/>
  </g>
</svg>
