<svg xmlns="http://www.w3.org/2000/svg" xmlns:xlink="http://www.w3.org/1999/xlink" width="55" height="55" viewBox="0 0 55 55">
  <defs>
    <linearGradient id="linear-gradient" x1="0.059" y1="1.422" x2="0.933" y2="-0.369" gradientUnits="objectBoundingBox">
      <stop offset="0" stop-color="#ff8a00"/>
      <stop offset="1" stop-color="#ffbd27"/>
    </linearGradient>
  </defs>
  <path id="icons-07" d="M9.7,37.337h8.709a9.246,9.246,0,0,1,18.183,0H45.3V11.759H9.691ZM27.5,19.2a4.594,4.594,0,1,1-3.255,1.35A4.594,4.594,0,0,1,27.5,19.2ZM50.151,55A4.851,4.851,0,0,0,55,50.152V4.848A4.848,4.848,0,0,0,50.151,0H4.848A4.846,4.846,0,0,0,0,4.848v45.3A4.849,4.849,0,0,0,4.848,55ZM6.184,8.186H48.816V46.812H6.184Z" fill="url(#linear-gradient)"/>
</svg>
