<svg xmlns="http://www.w3.org/2000/svg" xmlns:xlink="http://www.w3.org/1999/xlink" width="55" height="68" viewBox="0 0 55 68">
  <defs>
    <linearGradient id="linear-gradient" x1="0.059" y1="1.422" x2="0.933" y2="-0.369" gradientUnits="objectBoundingBox">
      <stop offset="0" stop-color="#ff8a00"/>
      <stop offset="1" stop-color="#ffbd27"/>
    </linearGradient>
  </defs>
  <g id="グループ_170" data-name="グループ 170" transform="translate(-255 -900)">
    <text id="モニター" transform="translate(283 966)" fill="#727272" stroke="rgba(0,0,0,0)" stroke-width="1" font-size="9" font-family="HiraginoSans-W3, Hiragino Sans" letter-spacing="-0.07em"><tspan x="-16.785" y="0">モニター</tspan></text>
    <path id="icons-07" d="M9.7,37.337h8.709a9.246,9.246,0,0,1,18.183,0H45.3V11.759H9.691ZM27.5,19.2a4.594,4.594,0,1,1-3.255,1.35A4.594,4.594,0,0,1,27.5,19.2ZM50.151,55A4.851,4.851,0,0,0,55,50.152V4.848A4.848,4.848,0,0,0,50.151,0H4.848A4.846,4.846,0,0,0,0,4.848v45.3A4.849,4.849,0,0,0,4.848,55ZM6.184,8.186H48.816V46.812H6.184Z" transform="translate(255 900)" fill="url(#linear-gradient)"/>
  </g>
</svg>
