<svg xmlns="http://www.w3.org/2000/svg" width="55" height="66" viewBox="0 0 55 66">
  <g id="グループ_171" data-name="グループ 171" transform="translate(-257 -1053)">
    <text id="追い焚き" transform="translate(285 1118)" fill="#727272" font-size="9" font-family="HiraginoSans-W3, Hiragino Sans" letter-spacing="-0.07em"><tspan x="-17.055" y="0">追い焚き</tspan></text>
    <path id="icons-03" d="M40.715,36.134s1.449,1.621,1.449,2.805a1.45,1.45,0,1,1-2.9,0C39.266,37.755,40.715,36.134,40.715,36.134ZM55,4.848v45.3A4.851,4.851,0,0,1,50.151,55H4.848A4.848,4.848,0,0,1,0,50.151V4.848A4.846,4.846,0,0,1,4.848,0h45.3A4.848,4.848,0,0,1,55,4.848ZM34.144,13.968a4.517,4.517,0,0,0,.7,2.507,3.213,3.213,0,0,1,0,3.42v.01c-.048.083-.1.178-.157.282a.679.679,0,0,0,.29.921l.232.118a.671.671,0,0,0,.308.075.679.679,0,0,0,.6-.356c.046-.087.093-.17.141-.253a4.824,4.824,0,0,0,0-5.014,2.913,2.913,0,0,1-.493-1.71,2.72,2.72,0,0,1,.323-1.4.677.677,0,0,0,.043-.52.685.685,0,0,0-.335-.4l-.232-.118a.679.679,0,0,0-.911.29,4.348,4.348,0,0,0-.511,2.145Zm-7.333,0a4.517,4.517,0,0,0,.7,2.507,3.213,3.213,0,0,1,0,3.42v.01q-.077.132-.155.279a.679.679,0,0,0,.288.923l.234.118a.662.662,0,0,0,.306.075.679.679,0,0,0,.6-.356c.041-.079.085-.155.128-.23l.012-.023a4.817,4.817,0,0,0,0-5.014,2.9,2.9,0,0,1-.495-1.71,2.72,2.72,0,0,1,.323-1.4.687.687,0,0,0,.046-.52.7.7,0,0,0-.337-.4l-.232-.118a.679.679,0,0,0-.911.29A4.347,4.347,0,0,0,26.812,13.968Zm-7.333,0a4.536,4.536,0,0,0,.7,2.507,3.213,3.213,0,0,1,0,3.42c-.05.087-.106.186-.161.29a.679.679,0,0,0,.288.932l.234.118a.665.665,0,0,0,.308.075.677.677,0,0,0,.6-.356c.045-.085.091-.168.141-.252a4.817,4.817,0,0,0,0-5.014,2.9,2.9,0,0,1-.495-1.71,2.72,2.72,0,0,1,.323-1.4.677.677,0,0,0-.3-.925l-.232-.118a.665.665,0,0,0-.308-.075.675.675,0,0,0-.6.364,4.348,4.348,0,0,0-.495,2.145Zm25.48,25.083c0-3.455-4.244-8.184-4.244-8.184s-4.244,4.728-4.244,8.184a4.245,4.245,0,1,0,8.488,0ZM37.3,33.022a27.431,27.431,0,0,1,2.242-2.948l1.174-1.308,1.174,1.308.126.145c.145-.433.292-.863.445-1.294l.207-.607-.621-.116c-.621-.116-1.153-.246-1.718-.385a22.162,22.162,0,0,0-6.118-.749,22.168,22.168,0,0,0-6.12.749,21.011,21.011,0,0,1-5.859.718,21,21,0,0,1-5.857-.718,22.206,22.206,0,0,0-3.637-.648l-.863-.077.3.814a74.412,74.412,0,0,1,2.4,7.747v.012c.379,1.439,1.486,2.375,2.07,2.387h.039c3.586-.093,7.219-.141,10.8-.141,2.511,0,5.049.025,7.583.07a14.075,14.075,0,0,1,2.234-4.96Zm8.3-8.248a3.566,3.566,0,0,0-3.1-1.35h-.182c-4.917.128-9.9.195-14.821.195s-9.9-.066-14.819-.195H12.5a3.566,3.566,0,0,0-3.1,1.35,3.259,3.259,0,0,0-.124,3.105,72.615,72.615,0,0,1,2.691,8.449,6.182,6.182,0,0,0,3.323,4.14l-.621,1.174a1.3,1.3,0,1,0,2.306,1.2l.971-1.863a1.346,1.346,0,0,0,.1-.267c3.134-.072,6.312-.11,9.444-.11,2.555,0,5.136.025,7.7.075a6.033,6.033,0,0,1-.207-1.631v-.087c-2.5-.046-5-.068-7.484-.068-3.573,0-7.2.048-10.776.141h-.05c-1.23,0-2.6-1.4-3.049-3.128a74.2,74.2,0,0,0-2.749-8.647l-.01-.025a1.734,1.734,0,0,1-.041-1.505,2,2,0,0,1,1.675-.6h.126c4.935.13,9.937.195,14.868.195s9.937-.064,14.866-.195H42.5a1.966,1.966,0,0,1,1.675.6,1.751,1.751,0,0,1-.043,1.509l-.01.027q-.739,1.915-1.368,3.849c.362.462.805,1.052,1.242,1.722q.761-2.484,1.714-4.958a3.222,3.222,0,0,0-.112-3.1Z" transform="translate(257 1053)" fill="#dedede"/>
  </g>
</svg>
