<svg xmlns="http://www.w3.org/2000/svg" xmlns:xlink="http://www.w3.org/1999/xlink" width="55" height="67" viewBox="0 0 55 67">
  <defs>
    <linearGradient id="linear-gradient" x1="0.059" y1="1.422" x2="0.933" y2="-0.369" gradientUnits="objectBoundingBox">
      <stop offset="0" stop-color="#ff8a00"/>
      <stop offset="1" stop-color="#ffbd27"/>
    </linearGradient>
  </defs>
  <g id="グループ_173" data-name="グループ 173" transform="translate(-194 -1053)">
    <text id="ペット可" transform="translate(222 1118)" fill="#727272" stroke="rgba(0,0,0,0)" stroke-width="1" font-size="9" font-family="HiraginoSans-W3, Hiragino Sans" letter-spacing="-0.07em"><tspan x="-17.055" y="0">ペット可</tspan></text>
    <path id="icons-10" d="M36.173,15.113a12.744,12.744,0,0,0-4.292,1.093.882.882,0,0,1-.609.064H31.24a14.2,14.2,0,0,0-3.656-.462H27.42a14.2,14.2,0,0,0-3.656.462h-.033a.882.882,0,0,1-.609-.064A12.881,12.881,0,0,0,18.775,15.1a6.941,6.941,0,0,0-6.834,3.466c-2.2,3.629,1.42,8.411,3.652,10.834,0-.557,0-1.184.023-1.845.106-3.06.559-5.267,1.346-6.556a7.968,7.968,0,0,1,3.267-3.023.887.887,0,0,1,.71,1.625,6.277,6.277,0,0,0-2.464,2.319c-.894,1.468-1.112,4.648-1.114,7.095a27.69,27.69,0,0,0,2.184,3.374,13.488,13.488,0,0,1,2,4.277c.462,1.482.747,2.277,1.739,2.832a3.352,3.352,0,0,0,3.588-.25.88.88,0,0,1,.609-.19h.079a.874.874,0,0,1,.578.193,3.353,3.353,0,0,0,3.584.246c.992-.551,1.277-1.35,1.739-2.832a13.273,13.273,0,0,1,2-4.277,27.423,27.423,0,0,0,2.182-3.374c0-2.447-.219-5.627-1.114-7.095a6.265,6.265,0,0,0-2.466-2.321.887.887,0,1,1,.723-1.621A7.97,7.97,0,0,1,38.045,21c.789,1.29,1.242,3.5,1.348,6.556.023.66.027,1.288.023,1.845,2.232-2.422,5.848-7.2,3.652-10.834A6.956,6.956,0,0,0,36.173,15.113Zm-13.4,13.912a2.114,2.114,0,1,1,2.118-2.112A2.114,2.114,0,0,1,22.773,29.025Zm4.722,8.316A2.922,2.922,0,0,1,24.7,34.749c0-1.13,1.242-1.5,2.795-1.5s2.795.371,2.795,1.5A2.917,2.917,0,0,1,27.5,37.341Zm6.832-10.43a.974.974,0,1,1,.01,0Zm-2.172-.547a.6.6,0,1,0,.01,0ZM50.151,0H4.848A4.846,4.846,0,0,0,0,4.848v45.3A4.849,4.849,0,0,0,4.848,55h45.3A4.851,4.851,0,0,0,55,50.152V4.848A4.848,4.848,0,0,0,50.151,0ZM39.024,32.281a.89.89,0,0,1-.981.126.861.861,0,0,1-.275-.207q-.429.621-.882,1.242a11.864,11.864,0,0,0-1.735,3.76c-.47,1.509-.913,2.936-2.571,3.857a4.929,4.929,0,0,1-2.418.646,5.383,5.383,0,0,1-2.662-.743,5.383,5.383,0,0,1-2.656.731,4.929,4.929,0,0,1-2.418-.646c-1.656-.921-2.1-2.348-2.571-3.857a11.828,11.828,0,0,0-1.737-3.76q-.45-.621-.88-1.242a.847.847,0,0,1-.277.207.888.888,0,0,1-.4.108.9.9,0,0,1-.584-.219c-.383-.337-9.37-8.324-5.552-14.635a8.73,8.73,0,0,1,8.521-4.314A14.7,14.7,0,0,1,23.6,14.475a16.009,16.009,0,0,1,3.822-.449h.164a16.022,16.022,0,0,1,3.822.449,14.7,14.7,0,0,1,4.652-1.143,8.706,8.706,0,0,1,8.519,4.314C48.394,23.957,39.407,31.944,39.024,32.281Zm-15.1-5.917a.6.6,0,1,1-.6-.6.6.6,0,0,1,.6.6Z" transform="translate(194 1053)" fill="url(#linear-gradient)"/>
  </g>
</svg>
