<svg xmlns="http://www.w3.org/2000/svg" width="55" height="67" viewBox="0 0 55 67">
  <g id="グループ_167" data-name="グループ 167" transform="translate(-320 -900)">
    <text id="洗浄便座" transform="translate(348 966)" fill="#727272" font-size="9" font-family="HiraginoSans-W3, Hiragino Sans" letter-spacing="-0.07em"><tspan x="-17.055" y="0">洗浄便座</tspan></text>
    <path id="icons-01" d="M50.151,0H4.848A4.846,4.846,0,0,0,0,4.848v45.3A4.849,4.849,0,0,0,4.848,55h45.3A4.851,4.851,0,0,0,55,50.152V4.848A4.848,4.848,0,0,0,50.151,0ZM30.921,12.252a.975.975,0,0,1,.151-.046.828.828,0,0,1,.319,0,1,1,0,0,1,.153.046.776.776,0,0,1,.141.077.636.636,0,0,1,.122.1.737.737,0,0,1,.1.124.828.828,0,0,1,.077.139,1,1,0,0,1,.046.153.816.816,0,0,1,.017.159.85.85,0,0,1-.017.159.911.911,0,0,1-.046.151.828.828,0,0,1-.077.141.737.737,0,0,1-.1.124.828.828,0,0,1-.122.1.915.915,0,0,1-.141.075.811.811,0,0,1-.153.046.683.683,0,0,1-.159.017.708.708,0,0,1-.159-.017.793.793,0,0,1-.151-.046.828.828,0,0,1-.141-.075.855.855,0,0,1-.124-.1.737.737,0,0,1-.1-.124.828.828,0,0,1-.075-.141.749.749,0,0,1-.046-.151.708.708,0,0,1-.017-.159.683.683,0,0,1,.017-.159.778.778,0,0,1,.12-.292.737.737,0,0,1,.1-.124.65.65,0,0,1,.124-.1.712.712,0,0,1,.141-.077Zm-1.6-3.039a.816.816,0,1,1-.176.887.814.814,0,0,1,.176-.887ZM26.685,7.645a.816.816,0,1,1-.807.814.816.816,0,0,1,.807-.814ZM22.9,9.215a.812.812,0,1,1-.239.576A.816.816,0,0,1,22.9,9.215Zm-1.074,3.037a1,1,0,0,1,.153-.046.828.828,0,0,1,.319,0,.911.911,0,0,1,.151.046.712.712,0,0,1,.141.077.65.65,0,0,1,.124.1.737.737,0,0,1,.1.124.778.778,0,0,1,.12.292.683.683,0,0,1,.017.159.708.708,0,0,1-.017.159.749.749,0,0,1-.046.151.828.828,0,0,1-.075.141.737.737,0,0,1-.1.124.855.855,0,0,1-.124.1.828.828,0,0,1-.141.075.75.75,0,0,1-.151.046.708.708,0,0,1-.159.017.683.683,0,0,1-.159-.017.778.778,0,0,1-.292-.12.855.855,0,0,1-.124-.1.737.737,0,0,1-.1-.124,1.019,1.019,0,0,1-.077-.141.911.911,0,0,1-.046-.151.851.851,0,0,1-.017-.159.816.816,0,0,1,.017-.159.83.83,0,0,1,.224-.416.65.65,0,0,1,.124-.1.7.7,0,0,1,.139-.077Zm.313,8.208a.816.816,0,1,1,.814-.816.816.816,0,0,1-.814.816Zm.814,2.519a.814.814,0,1,1-.238-.577.816.816,0,0,1,.238.577Zm-.814-5.859a.816.816,0,1,1,.814-.814.816.816,0,0,1-.814.814ZM20.224,9.213a.816.816,0,1,1,0,1.153h0A.828.828,0,0,1,20.224,9.213ZM17.6,7.645a.812.812,0,1,1-.585.232A.816.816,0,0,1,17.6,7.645ZM13.8,9.215a.816.816,0,0,1,1.153,1.151h0A.816.816,0,0,1,13.8,9.215Zm-1.331,4.366a.807.807,0,0,1-.222-.735.778.778,0,0,1,.12-.292.855.855,0,0,1,.1-.124.72.72,0,0,1,.124-.1.712.712,0,0,1,.141-.077.975.975,0,0,1,.151-.046.828.828,0,0,1,.319,0,1,1,0,0,1,.153.046.712.712,0,0,1,.141.077.758.758,0,0,1,.224.226.7.7,0,0,1,.077.139.863.863,0,0,1,.062.313.828.828,0,0,1-.238.576.983.983,0,0,1-.124.1.828.828,0,0,1-.141.075.811.811,0,0,1-.153.046.683.683,0,0,1-.159.017.708.708,0,0,1-.159-.017.793.793,0,0,1-.151-.046.828.828,0,0,1-.141-.075A.983.983,0,0,1,12.467,13.581Zm.244,15.959a1.048,1.048,0,0,1,1.048-1.045H24.317c1.542,0,3.377-.919,4.993-1.733a10.378,10.378,0,0,1,3.826-1.408H35.7l-4.29,5.654h-18.7Zm30.06,1.994a.95.95,0,0,1-.021.207l-2.9,14.771a1.035,1.035,0,0,1-1.035.847H18.17a1.05,1.05,0,0,1-1.006-.756L13.231,33.039h18.7a1.008,1.008,0,0,0,.805-.4l5.521-7.279h3.476a1.048,1.048,0,0,1,1.05,1.048Z" transform="translate(320 900)" fill="#dedede"/>
  </g>
</svg>
